<svg id="visual" viewBox="0 0 960 540" width="960" height="540" xmlns="http://www.w3.org/2000/svg" xmlns:xlink="http://www.w3.org/1999/xlink" version="1.1"><g stroke-width="1" stroke-linejoin="bevel"><path d="M476.7 276.5L489 269.5L434 228.5Z" fill="#0a1722" stroke="#0a1722"></path><path d="M434 228.5L432.3 232.4L476.7 276.5Z" fill="#343f4c" stroke="#343f4c"></path><path d="M432.3 232.4L433.7 260.5L476.7 276.5Z" fill="#2d3845" stroke="#2d3845"></path><path d="M489 269.5L495.3 189.4L434 228.5Z" fill="#111d29" stroke="#111d29"></path><path d="M495.3 189.4L409.7 212.4L434 228.5Z" fill="#26313e" stroke="#26313e"></path><path d="M434 228.5L409.7 212.4L432.3 232.4Z" fill="#1f2a37" stroke="#1f2a37"></path><path d="M432.3 232.4L393.3 242.5L433.7 260.5Z" fill="#4b5563" stroke="#4b5563"></path><path d="M409.7 212.4L393.3 242.5L432.3 232.4Z" fill="#0a1722" stroke="#0a1722"></path><path d="M569.7 219.4L518.3 169.3L495.3 189.4Z" fill="#26313e" stroke="#26313e"></path><path d="M495.3 189.4L426 132.3L409.7 212.4Z" fill="#111d29" stroke="#111d29"></path><path d="M489 269.5L569.7 219.4L495.3 189.4Z" fill="#4b5563" stroke="#4b5563"></path><path d="M518.3 169.3L486 138.4L495.3 189.4Z" fill="#1f2a37" stroke="#1f2a37"></path><path d="M476.7 276.5L523 337.7L489 269.5Z" fill="#1f2a37" stroke="#1f2a37"></path><path d="M489 269.5L587 249.5L569.7 219.4Z" fill="#26313e" stroke="#26313e"></path><path d="M522.3 364.7L523 337.7L495 379.6Z" fill="#2d3845" stroke="#2d3845"></path><path d="M369.3 320.5L476.7 276.5L433.7 260.5Z" fill="#434e5b" stroke="#434e5b"></path><path d="M486 138.4L426 132.3L495.3 189.4Z" fill="#1f2a37" stroke="#1f2a37"></path><path d="M409.7 212.4L335 235.5L393.3 242.5Z" fill="#182430" stroke="#182430"></path><path d="M523 337.7L537.3 337.6L489 269.5Z" fill="#2d3845" stroke="#2d3845"></path><path d="M558.3 330.5L587 249.5L489 269.5Z" fill="#3c4654" stroke="#3c4654"></path><path d="M335 235.5L369 316.6L393.3 242.5Z" fill="#111d29" stroke="#111d29"></path><path d="M393.3 242.5L369 316.6L433.7 260.5Z" fill="#0a1722" stroke="#0a1722"></path><path d="M369 316.6L369.3 320.5L433.7 260.5Z" fill="#343f4c" stroke="#343f4c"></path><path d="M594.7 239.5L578.3 185.5L569.7 219.4Z" fill="#4b5563" stroke="#4b5563"></path><path d="M569.7 219.4L578.3 185.5L518.3 169.3Z" fill="#3c4654" stroke="#3c4654"></path><path d="M518.3 169.3L514 98.1L486 138.4Z" fill="#111d29" stroke="#111d29"></path><path d="M537.3 337.6L558.3 330.5L489 269.5Z" fill="#1f2a37" stroke="#1f2a37"></path><path d="M635.7 262.5L594.7 239.5L587 249.5Z" fill="#1f2a37" stroke="#1f2a37"></path><path d="M587 249.5L594.7 239.5L569.7 219.4Z" fill="#2d3845" stroke="#2d3845"></path><path d="M426 132.3L401.7 130.3L409.7 212.4Z" fill="#1f2a37" stroke="#1f2a37"></path><path d="M371 135.4L335 235.5L409.7 212.4Z" fill="#00101c" stroke="#00101c"></path><path d="M369 316.6L295.7 285.5L369.3 320.5Z" fill="#434e5b" stroke="#434e5b"></path><path d="M523 337.7L522.3 364.7L537.3 337.6Z" fill="#343f4c" stroke="#343f4c"></path><path d="M537.3 337.6L522.3 364.7L558.3 330.5Z" fill="#0a1722" stroke="#0a1722"></path><path d="M495 379.6L523 337.7L476.7 276.5Z" fill="#111d29" stroke="#111d29"></path><path d="M453.7 401.7L495 379.6L430.3 400.6Z" fill="#1f2a37" stroke="#1f2a37"></path><path d="M401.7 130.3L371 135.4L409.7 212.4Z" fill="#26313e" stroke="#26313e"></path><path d="M453.7 401.7L487.3 390.8L495 379.6Z" fill="#2d3845" stroke="#2d3845"></path><path d="M495 379.6L487.3 390.8L522.3 364.7Z" fill="#111d29" stroke="#111d29"></path><path d="M553.3 92.2L514 98.1L518.3 169.3Z" fill="#26313e" stroke="#26313e"></path><path d="M486 138.4L431 81.2L426 132.3Z" fill="#00101c" stroke="#00101c"></path><path d="M426 132.3L431 81.2L401.7 130.3Z" fill="#2d3845" stroke="#2d3845"></path><path d="M401.7 130.3L381.3 90.3L371 135.4Z" fill="#0a1722" stroke="#0a1722"></path><path d="M430.3 400.6L495 379.6L476.7 276.5Z" fill="#3c4654" stroke="#3c4654"></path><path d="M369.3 320.5L430.3 400.6L476.7 276.5Z" fill="#2d3845" stroke="#2d3845"></path><path d="M328.3 398.8L366.7 370.6L263.3 352.7Z" fill="#182430" stroke="#182430"></path><path d="M369.3 320.5L366.7 370.6L430.3 400.6Z" fill="#26313e" stroke="#26313e"></path><path d="M514 98.1L431 81.2L486 138.4Z" fill="#182430" stroke="#182430"></path><path d="M605 361.6L635.7 262.5L558.3 330.5Z" fill="#434e5b" stroke="#434e5b"></path><path d="M558.3 330.5L635.7 262.5L587 249.5Z" fill="#182430" stroke="#182430"></path><path d="M615.7 145.3L608 138.2L578.3 185.5Z" fill="#182430" stroke="#182430"></path><path d="M578.3 185.5L553.3 92.2L518.3 169.3Z" fill="#182430" stroke="#182430"></path><path d="M366.7 370.6L405.3 403.7L430.3 400.6Z" fill="#182430" stroke="#182430"></path><path d="M430.3 400.6L439.7 421.8L453.7 401.7Z" fill="#434e5b" stroke="#434e5b"></path><path d="M608 138.2L553.3 92.2L578.3 185.5Z" fill="#1f2a37" stroke="#1f2a37"></path><path d="M514 98.1L459.7 50.2L431 81.2Z" fill="#3c4654" stroke="#3c4654"></path><path d="M431 81.2L381.3 90.3L401.7 130.3Z" fill="#1f2a37" stroke="#1f2a37"></path><path d="M256.7 287.5L295.7 285.5L254.7 202.3Z" fill="#1f2a37" stroke="#1f2a37"></path><path d="M312.3 121.2L335 235.5L371 135.4Z" fill="#434e5b" stroke="#434e5b"></path><path d="M335 235.5L295.7 285.5L369 316.6Z" fill="#434e5b" stroke="#434e5b"></path><path d="M615.7 145.3L578.3 185.5L657.3 234.5Z" fill="#1f2a37" stroke="#1f2a37"></path><path d="M657.3 234.5L578.3 185.5L594.7 239.5Z" fill="#00101c" stroke="#00101c"></path><path d="M405.3 403.7L439.7 421.8L430.3 400.6Z" fill="#434e5b" stroke="#434e5b"></path><path d="M453.7 401.7L439.7 421.8L487.3 390.8Z" fill="#182430" stroke="#182430"></path><path d="M607.7 372.6L605 361.6L522.3 364.7Z" fill="#2d3845" stroke="#2d3845"></path><path d="M522.3 364.7L605 361.6L558.3 330.5Z" fill="#434e5b" stroke="#434e5b"></path><path d="M607.7 372.6L522.3 364.7L551.3 513.9Z" fill="#4b5563" stroke="#4b5563"></path><path d="M608 138.2L595 104.1L553.3 92.2Z" fill="#26313e" stroke="#26313e"></path><path d="M674 143.3L595 104.1L608 138.2Z" fill="#4b5563" stroke="#4b5563"></path><path d="M401.7 29.1L347 94.2L381.3 90.3Z" fill="#4b5563" stroke="#4b5563"></path><path d="M381.3 90.3L347 94.2L371 135.4Z" fill="#4b5563" stroke="#4b5563"></path><path d="M577.7 87.2L557.7 75.1L553.3 92.2Z" fill="#343f4c" stroke="#343f4c"></path><path d="M553.3 92.2L557.7 75.1L514 98.1Z" fill="#00101c" stroke="#00101c"></path><path d="M672 314.5L657.3 234.5L635.7 262.5Z" fill="#26313e" stroke="#26313e"></path><path d="M635.7 262.5L657.3 234.5L594.7 239.5Z" fill="#182430" stroke="#182430"></path><path d="M595 104.1L577.7 87.2L553.3 92.2Z" fill="#0a1722" stroke="#0a1722"></path><path d="M645.7 408.7L607.7 372.6L620.7 502.8Z" fill="#182430" stroke="#182430"></path><path d="M605 361.6L672 314.5L635.7 262.5Z" fill="#434e5b" stroke="#434e5b"></path><path d="M505.3 45.1L459.7 50.2L514 98.1Z" fill="#182430" stroke="#182430"></path><path d="M431 81.2L401.7 29.1L381.3 90.3Z" fill="#1f2a37" stroke="#1f2a37"></path><path d="M320 105.3L312.3 121.2L371 135.4Z" fill="#4b5563" stroke="#4b5563"></path><path d="M256.7 287.5L277 297.5L295.7 285.5Z" fill="#343f4c" stroke="#343f4c"></path><path d="M295.7 285.5L263.3 352.7L369.3 320.5Z" fill="#0a1722" stroke="#0a1722"></path><path d="M366.7 370.6L375.3 447.9L405.3 403.7Z" fill="#434e5b" stroke="#434e5b"></path><path d="M347 94.2L320 105.3L371 135.4Z" fill="#26313e" stroke="#26313e"></path><path d="M557.7 75.1L505.3 45.1L514 98.1Z" fill="#343f4c" stroke="#343f4c"></path><path d="M263.3 352.7L366.7 370.6L369.3 320.5Z" fill="#343f4c" stroke="#343f4c"></path><path d="M405.3 403.7L375.3 447.9L439.7 421.8Z" fill="#4b5563" stroke="#4b5563"></path><path d="M254.7 202.3L295.7 285.5L335 235.5Z" fill="#182430" stroke="#182430"></path><path d="M277 297.5L263.3 352.7L295.7 285.5Z" fill="#182430" stroke="#182430"></path><path d="M270.7 149.2L335 235.5L312.3 121.2Z" fill="#182430" stroke="#182430"></path><path d="M270.7 149.2L254.7 202.3L335 235.5Z" fill="#00101c" stroke="#00101c"></path><path d="M260 86.1L270.7 149.2L312.3 121.2Z" fill="#182430" stroke="#182430"></path><path d="M655 365.7L672 314.5L605 361.6Z" fill="#0a1722" stroke="#0a1722"></path><path d="M464 0L401.7 29.1L459.7 50.2Z" fill="#343f4c" stroke="#343f4c"></path><path d="M459.7 50.2L401.7 29.1L431 81.2Z" fill="#26313e" stroke="#26313e"></path><path d="M347 94.2L311.3 46.1L320 105.3Z" fill="#0a1722" stroke="#0a1722"></path><path d="M260 86.1L237.3 147.4L270.7 149.2Z" fill="#3c4654" stroke="#3c4654"></path><path d="M328.3 398.8L375.3 447.9L366.7 370.6Z" fill="#111d29" stroke="#111d29"></path><path d="M439.7 421.8L432 465.8L487.3 390.8Z" fill="#3c4654" stroke="#3c4654"></path><path d="M375.3 447.9L432 465.8L439.7 421.8Z" fill="#111d29" stroke="#111d29"></path><path d="M645.7 408.7L655 365.7L607.7 372.6Z" fill="#2d3845" stroke="#2d3845"></path><path d="M607.7 372.6L655 365.7L605 361.6Z" fill="#111d29" stroke="#111d29"></path><path d="M657.3 234.5L678 157.4L615.7 145.3Z" fill="#00101c" stroke="#00101c"></path><path d="M615.7 145.3L674 143.3L608 138.2Z" fill="#182430" stroke="#182430"></path><path d="M625.7 0L587 0L577.7 87.2Z" fill="#0a1722" stroke="#0a1722"></path><path d="M723.7 206.3L678 157.4L657.3 234.5Z" fill="#1f2a37" stroke="#1f2a37"></path><path d="M236.3 324.5L263.3 352.7L277 297.5Z" fill="#3c4654" stroke="#3c4654"></path><path d="M289 465.9L372.7 486.9L375.3 447.9Z" fill="#0a1722" stroke="#0a1722"></path><path d="M678 157.4L674 143.3L615.7 145.3Z" fill="#111d29" stroke="#111d29"></path><path d="M504.3 0L505.3 45.1L587 0Z" fill="#0a1722" stroke="#0a1722"></path><path d="M270.7 149.2L231.7 190.4L254.7 202.3Z" fill="#343f4c" stroke="#343f4c"></path><path d="M254.7 202.3L196.3 283.5L256.7 287.5Z" fill="#343f4c" stroke="#343f4c"></path><path d="M256.7 287.5L236.3 324.5L277 297.5Z" fill="#3c4654" stroke="#3c4654"></path><path d="M505.3 45.1L464 0L459.7 50.2Z" fill="#0a1722" stroke="#0a1722"></path><path d="M504.3 0L464 0L505.3 45.1Z" fill="#3c4654" stroke="#3c4654"></path><path d="M505.3 45.1L557.7 75.1L587 0Z" fill="#26313e" stroke="#26313e"></path><path d="M196.3 283.5L236.3 324.5L256.7 287.5Z" fill="#00101c" stroke="#00101c"></path><path d="M711.7 306.5L716.7 251.5L672 314.5Z" fill="#2d3845" stroke="#2d3845"></path><path d="M551.3 513.9L522.3 364.7L487.3 390.8Z" fill="#182430" stroke="#182430"></path><path d="M228.7 385.8L274 395.8L263.3 352.7Z" fill="#26313e" stroke="#26313e"></path><path d="M263.3 352.7L274 395.8L328.3 398.8Z" fill="#26313e" stroke="#26313e"></path><path d="M587 0L557.7 75.1L577.7 87.2Z" fill="#182430" stroke="#182430"></path><path d="M260 86.1L312.3 121.2L320 105.3Z" fill="#26313e" stroke="#26313e"></path><path d="M270.7 149.2L237.3 147.4L231.7 190.4Z" fill="#3c4654" stroke="#3c4654"></path><path d="M374.7 0L311.3 46.1L401.7 29.1Z" fill="#4b5563" stroke="#4b5563"></path><path d="M401.7 29.1L311.3 46.1L347 94.2Z" fill="#00101c" stroke="#00101c"></path><path d="M711.7 306.5L672 314.5L718.3 346.6Z" fill="#182430" stroke="#182430"></path><path d="M672 314.5L716.7 251.5L657.3 234.5Z" fill="#434e5b" stroke="#434e5b"></path><path d="M678 157.4L719.3 144.4L674 143.3Z" fill="#2d3845" stroke="#2d3845"></path><path d="M718.3 346.6L672 314.5L655 365.7Z" fill="#4b5563" stroke="#4b5563"></path><path d="M464 0L386.3 0L401.7 29.1Z" fill="#111d29" stroke="#111d29"></path><path d="M267.3 76.1L260 86.1L320 105.3Z" fill="#26313e" stroke="#26313e"></path><path d="M287.7 47.1L267.3 76.1L320 105.3Z" fill="#00101c" stroke="#00101c"></path><path d="M386.3 0L374.7 0L401.7 29.1Z" fill="#2d3845" stroke="#2d3845"></path><path d="M311.3 46.1L287.7 47.1L320 105.3Z" fill="#111d29" stroke="#111d29"></path><path d="M725.7 214.4L657.3 234.5L716.7 251.5Z" fill="#2d3845" stroke="#2d3845"></path><path d="M725.7 214.4L723.7 206.3L657.3 234.5Z" fill="#26313e" stroke="#26313e"></path><path d="M289 465.9L375.3 447.9L328.3 398.8Z" fill="#4b5563" stroke="#4b5563"></path><path d="M375.3 447.9L372.7 486.9L432 465.8Z" fill="#1f2a37" stroke="#1f2a37"></path><path d="M432 465.8L551.3 513.9L487.3 390.8Z" fill="#00101c" stroke="#00101c"></path><path d="M741.3 203.3L725.7 214.4L716.7 251.5Z" fill="#26313e" stroke="#26313e"></path><path d="M275 0L287.7 47.1L311.3 46.1Z" fill="#343f4c" stroke="#343f4c"></path><path d="M267.3 76.1L210.3 93.2L260 86.1Z" fill="#00101c" stroke="#00101c"></path><path d="M699.3 102.2L595 104.1L674 143.3Z" fill="#1f2a37" stroke="#1f2a37"></path><path d="M625.7 0L577.7 87.2L595 104.1Z" fill="#1f2a37" stroke="#1f2a37"></path><path d="M741.3 203.3L719.3 144.4L723.7 206.3Z" fill="#4b5563" stroke="#4b5563"></path><path d="M723.7 206.3L719.3 144.4L678 157.4Z" fill="#182430" stroke="#182430"></path><path d="M237.3 147.4L203 172.4L231.7 190.4Z" fill="#343f4c" stroke="#343f4c"></path><path d="M231.7 190.4L196.3 283.5L254.7 202.3Z" fill="#4b5563" stroke="#4b5563"></path><path d="M174 157.2L203 172.4L237.3 147.4Z" fill="#4b5563" stroke="#4b5563"></path><path d="M139 203.3L196.3 283.5L231.7 190.4Z" fill="#00101c" stroke="#00101c"></path><path d="M228.7 431.9L272 439.7L274 395.8Z" fill="#00101c" stroke="#00101c"></path><path d="M719.3 144.4L699.3 102.2L674 143.3Z" fill="#111d29" stroke="#111d29"></path><path d="M710.7 390.6L718.3 346.6L655 365.7Z" fill="#434e5b" stroke="#434e5b"></path><path d="M787 272.5L741.3 203.3L716.7 251.5Z" fill="#434e5b" stroke="#434e5b"></path><path d="M274 395.8L272 439.7L328.3 398.8Z" fill="#2d3845" stroke="#2d3845"></path><path d="M228.7 385.8L263.3 352.7L207.7 358.6Z" fill="#343f4c" stroke="#343f4c"></path><path d="M207.7 358.6L263.3 352.7L236.3 324.5Z" fill="#00101c" stroke="#00101c"></path><path d="M771 292.5L716.7 251.5L711.7 306.5Z" fill="#4b5563" stroke="#4b5563"></path><path d="M725.7 214.4L741.3 203.3L723.7 206.3Z" fill="#3c4654" stroke="#3c4654"></path><path d="M196.3 283.5L207.7 358.6L236.3 324.5Z" fill="#182430" stroke="#182430"></path><path d="M507 540L551.3 513.9L432 465.8Z" fill="#2d3845" stroke="#2d3845"></path><path d="M645.7 408.7L710.7 390.6L655 365.7Z" fill="#4b5563" stroke="#4b5563"></path><path d="M172 359.7L207 360.6L207.7 358.6Z" fill="#111d29" stroke="#111d29"></path><path d="M207.7 358.6L207 360.6L228.7 385.8Z" fill="#182430" stroke="#182430"></path><path d="M228.7 431.9L289 465.9L272 439.7Z" fill="#0a1722" stroke="#0a1722"></path><path d="M272 439.7L289 465.9L328.3 398.8Z" fill="#4b5563" stroke="#4b5563"></path><path d="M228.7 431.9L274 395.8L228.7 385.8Z" fill="#182430" stroke="#182430"></path><path d="M691.3 448.9L710.7 390.6L645.7 408.7Z" fill="#343f4c" stroke="#343f4c"></path><path d="M710.7 390.6L738.3 332.5L718.3 346.6Z" fill="#4b5563" stroke="#4b5563"></path><path d="M718.3 346.6L738.3 332.5L711.7 306.5Z" fill="#111d29" stroke="#111d29"></path><path d="M666.3 0L625.7 0L595 104.1Z" fill="#4b5563" stroke="#4b5563"></path><path d="M239.3 0L210.3 93.2L267.3 76.1Z" fill="#434e5b" stroke="#434e5b"></path><path d="M260 86.1L210.3 93.2L237.3 147.4Z" fill="#1f2a37" stroke="#1f2a37"></path><path d="M481 549.9L507 540L432 465.8Z" fill="#4b5563" stroke="#4b5563"></path><path d="M420.3 540L432 465.8L372.7 486.9Z" fill="#26313e" stroke="#26313e"></path><path d="M507 540L510.3 540L551.3 513.9Z" fill="#0a1722" stroke="#0a1722"></path><path d="M364.7 540L420.3 540L372.7 486.9Z" fill="#343f4c" stroke="#343f4c"></path><path d="M210.3 93.2L201.3 100.3L237.3 147.4Z" fill="#343f4c" stroke="#343f4c"></path><path d="M203 172.4L139 203.3L231.7 190.4Z" fill="#4b5563" stroke="#4b5563"></path><path d="M570.7 544.9L620.7 502.8L551.3 513.9Z" fill="#343f4c" stroke="#343f4c"></path><path d="M551.3 513.9L620.7 502.8L607.7 372.6Z" fill="#2d3845" stroke="#2d3845"></path><path d="M204.7 400.7L228.7 431.9L228.7 385.8Z" fill="#343f4c" stroke="#343f4c"></path><path d="M315.7 540L364.7 540L372.7 486.9Z" fill="#4b5563" stroke="#4b5563"></path><path d="M201.3 100.3L174 157.2L237.3 147.4Z" fill="#4b5563" stroke="#4b5563"></path><path d="M172 359.7L204.7 400.7L207 360.6Z" fill="#182430" stroke="#182430"></path><path d="M172 359.7L207.7 358.6L196.3 283.5Z" fill="#4b5563" stroke="#4b5563"></path><path d="M207 360.6L204.7 400.7L228.7 385.8Z" fill="#182430" stroke="#182430"></path><path d="M686 458.8L691.3 448.9L645.7 408.7Z" fill="#343f4c" stroke="#343f4c"></path><path d="M766 326.6L771 292.5L738.3 332.5Z" fill="#4b5563" stroke="#4b5563"></path><path d="M507 540L481 549.9L510.3 540Z" fill="#4b5563" stroke="#4b5563"></path><path d="M510.3 540L570.7 544.9L551.3 513.9Z" fill="#4b5563" stroke="#4b5563"></path><path d="M420.3 540L481 549.9L432 465.8Z" fill="#182430" stroke="#182430"></path><path d="M620.7 502.8L686 458.8L645.7 408.7Z" fill="#182430" stroke="#182430"></path><path d="M766 326.6L738.3 332.5L710.7 390.6Z" fill="#4b5563" stroke="#4b5563"></path><path d="M738.3 332.5L771 292.5L711.7 306.5Z" fill="#3c4654" stroke="#3c4654"></path><path d="M374.7 0L275 0L311.3 46.1Z" fill="#111d29" stroke="#111d29"></path><path d="M287.7 47.1L239.3 0L267.3 76.1Z" fill="#3c4654" stroke="#3c4654"></path><path d="M210.3 93.2L139 87.1L201.3 100.3Z" fill="#182430" stroke="#182430"></path><path d="M750.7 435.7L766 326.6L710.7 390.6Z" fill="#3c4654" stroke="#3c4654"></path><path d="M750.7 435.7L710.7 390.6L691.3 448.9Z" fill="#111d29" stroke="#111d29"></path><path d="M315.7 540L372.7 486.9L289 465.9Z" fill="#26313e" stroke="#26313e"></path><path d="M420.3 540L364.7 540L481 549.9Z" fill="#0a1722" stroke="#0a1722"></path><path d="M719.3 144.4L748 103.1L699.3 102.2Z" fill="#4b5563" stroke="#4b5563"></path><path d="M699.3 102.2L666.3 0L595 104.1Z" fill="#434e5b" stroke="#434e5b"></path><path d="M805.3 144.2L748 103.1L719.3 144.4Z" fill="#26313e" stroke="#26313e"></path><path d="M805.3 144.2L719.3 144.4L741.3 203.3Z" fill="#00101c" stroke="#00101c"></path><path d="M692.3 0.1L666.3 0L699.3 102.2Z" fill="#2d3845" stroke="#2d3845"></path><path d="M204.7 400.7L158.7 459.8L228.7 431.9Z" fill="#343f4c" stroke="#343f4c"></path><path d="M143.7 324.6L172 359.7L196.3 283.5Z" fill="#3c4654" stroke="#3c4654"></path><path d="M275 0L260.7 0L287.7 47.1Z" fill="#0a1722" stroke="#0a1722"></path><path d="M481 549.9L570.7 544.9L510.3 540Z" fill="#182430" stroke="#182430"></path><path d="M620.7 502.8L678.3 485.8L686 458.8Z" fill="#182430" stroke="#182430"></path><path d="M864.7 335.5L787 272.5L771 292.5Z" fill="#0a1722" stroke="#0a1722"></path><path d="M771 292.5L787 272.5L716.7 251.5Z" fill="#343f4c" stroke="#343f4c"></path><path d="M698 540L678.3 485.8L620.7 502.8Z" fill="#2d3845" stroke="#2d3845"></path><path d="M686 458.8L695 477.9L691.3 448.9Z" fill="#111d29" stroke="#111d29"></path><path d="M727.7 493.8L695 477.9L698 540Z" fill="#182430" stroke="#182430"></path><path d="M678.3 485.8L695 477.9L686 458.8Z" fill="#1f2a37" stroke="#1f2a37"></path><path d="M136 185.5L139 203.3L174 157.2Z" fill="#2d3845" stroke="#2d3845"></path><path d="M174 157.2L139 203.3L203 172.4Z" fill="#2d3845" stroke="#2d3845"></path><path d="M136 185.5L174 157.2L139 87.1Z" fill="#4b5563" stroke="#4b5563"></path><path d="M738 36.2L692.3 0.1L699.3 102.2Z" fill="#4b5563" stroke="#4b5563"></path><path d="M260.7 0L239.3 0L287.7 47.1Z" fill="#1f2a37" stroke="#1f2a37"></path><path d="M101 292.5L143.7 324.6L196.3 283.5Z" fill="#4b5563" stroke="#4b5563"></path><path d="M172 359.7L160.3 386.8L204.7 400.7Z" fill="#26313e" stroke="#26313e"></path><path d="M310 540L315.7 540L289 465.9Z" fill="#343f4c" stroke="#343f4c"></path><path d="M364.7 540L315.7 540L481 549.9Z" fill="#0a1722" stroke="#0a1722"></path><path d="M570.7 544.9L617.7 540L620.7 502.8Z" fill="#111d29" stroke="#111d29"></path><path d="M139 87.1L174 157.2L201.3 100.3Z" fill="#1f2a37" stroke="#1f2a37"></path><path d="M139 203.3L105.7 233.5L196.3 283.5Z" fill="#1f2a37" stroke="#1f2a37"></path><path d="M249.3 540L310 540L289 465.9Z" fill="#343f4c" stroke="#343f4c"></path><path d="M315.7 540L310 540L481 549.9Z" fill="#0a1722" stroke="#0a1722"></path><path d="M249.3 540L289 465.9L219.3 528.9Z" fill="#00101c" stroke="#00101c"></path><path d="M143.7 324.6L160.3 386.8L172 359.7Z" fill="#3c4654" stroke="#3c4654"></path><path d="M773.7 56.2L738 36.2L748 103.1Z" fill="#2d3845" stroke="#2d3845"></path><path d="M748 103.1L738 36.2L699.3 102.2Z" fill="#00101c" stroke="#00101c"></path><path d="M745.3 447.7L691.3 448.9L695 477.9Z" fill="#182430" stroke="#182430"></path><path d="M745.3 447.7L750.7 435.7L691.3 448.9Z" fill="#182430" stroke="#182430"></path><path d="M864.7 335.5L837 256.4L787 272.5Z" fill="#343f4c" stroke="#343f4c"></path><path d="M111.3 404.8L157.3 395.6L160.3 386.8Z" fill="#2d3845" stroke="#2d3845"></path><path d="M160.3 386.8L161.7 404.7L204.7 400.7Z" fill="#00101c" stroke="#00101c"></path><path d="M157.3 395.6L161.7 404.7L160.3 386.8Z" fill="#343f4c" stroke="#343f4c"></path><path d="M738 36.2L708.7 -1.9L692.3 0.1Z" fill="#3c4654" stroke="#3c4654"></path><path d="M692.3 0.1L708.7 -1.9L666.3 0Z" fill="#00101c" stroke="#00101c"></path><path d="M666.3 0L708.7 -1.9L625.7 0Z" fill="#2d3845" stroke="#2d3845"></path><path d="M625.7 0L801.3 -11.9L587 0Z" fill="#182430" stroke="#182430"></path><path d="M587 0L801.3 -11.9L504.3 0Z" fill="#111d29" stroke="#111d29"></path><path d="M504.3 0L801.3 -11.9L464 0Z" fill="#343f4c" stroke="#343f4c"></path><path d="M464 0L801.3 -11.9L386.3 0Z" fill="#26313e" stroke="#26313e"></path><path d="M386.3 0L801.3 -11.9L374.7 0Z" fill="#4b5563" stroke="#4b5563"></path><path d="M374.7 0L801.3 -11.9L275 0Z" fill="#111d29" stroke="#111d29"></path><path d="M275 0L111.7 -1.9L260.7 0Z" fill="#4b5563" stroke="#4b5563"></path><path d="M260.7 0L111.7 -1.9L239.3 0Z" fill="#111d29" stroke="#111d29"></path><path d="M761 439.9L745.3 447.7L747.7 512.9Z" fill="#343f4c" stroke="#343f4c"></path><path d="M837 256.4L805.3 144.2L741.3 203.3Z" fill="#1f2a37" stroke="#1f2a37"></path><path d="M727.7 493.8L745.3 447.7L695 477.9Z" fill="#2d3845" stroke="#2d3845"></path><path d="M745.3 447.7L761 439.9L750.7 435.7Z" fill="#111d29" stroke="#111d29"></path><path d="M750.7 435.7L761 439.9L766 326.6Z" fill="#00101c" stroke="#00101c"></path><path d="M805.3 144.2L773.7 56.2L748 103.1Z" fill="#3c4654" stroke="#3c4654"></path><path d="M738 36.2L782.7 0L708.7 -1.9Z" fill="#111d29" stroke="#111d29"></path><path d="M98.7 198.4L139 203.3L136 185.5Z" fill="#0a1722" stroke="#0a1722"></path><path d="M98.7 198.4L105.7 233.5L139 203.3Z" fill="#0a1722" stroke="#0a1722"></path><path d="M143.7 324.6L111.3 404.8L160.3 386.8Z" fill="#26313e" stroke="#26313e"></path><path d="M141 0L139 87.1L210.3 93.2Z" fill="#111d29" stroke="#111d29"></path><path d="M698 540L695 477.9L678.3 485.8Z" fill="#3c4654" stroke="#3c4654"></path><path d="M219.3 528.9L289 465.9L228.7 431.9Z" fill="#111d29" stroke="#111d29"></path><path d="M310 540L249.3 540L481 549.9Z" fill="#00101c" stroke="#00101c"></path><path d="M105.7 233.5L101 292.5L196.3 283.5Z" fill="#4b5563" stroke="#4b5563"></path><path d="M111.3 404.8L158.7 459.8L161.7 404.7Z" fill="#00101c" stroke="#00101c"></path><path d="M60.7 94.3L98.7 198.4L136 185.5Z" fill="#3c4654" stroke="#3c4654"></path><path d="M69.3 246.4L85.3 306.5L101 292.5Z" fill="#0a1722" stroke="#0a1722"></path><path d="M864.7 335.5L771 292.5L766 326.6Z" fill="#3c4654" stroke="#3c4654"></path><path d="M787 272.5L837 256.4L741.3 203.3Z" fill="#1f2a37" stroke="#1f2a37"></path><path d="M111.3 404.8L161.7 404.7L157.3 395.6Z" fill="#111d29" stroke="#111d29"></path><path d="M161.7 404.7L158.7 459.8L204.7 400.7Z" fill="#434e5b" stroke="#434e5b"></path><path d="M570.7 544.9L698 540L617.7 540Z" fill="#111d29" stroke="#111d29"></path><path d="M617.7 540L698 540L620.7 502.8Z" fill="#111d29" stroke="#111d29"></path><path d="M728.3 540L698 540L570.7 544.9Z" fill="#182430" stroke="#182430"></path><path d="M158.7 459.8L219.3 528.9L228.7 431.9Z" fill="#343f4c" stroke="#343f4c"></path><path d="M69.3 246.4L101 292.5L105.7 233.5Z" fill="#2d3845" stroke="#2d3845"></path><path d="M101 292.5L85.3 306.5L143.7 324.6Z" fill="#0a1722" stroke="#0a1722"></path><path d="M85.3 306.5L111.3 404.8L143.7 324.6Z" fill="#4b5563" stroke="#4b5563"></path><path d="M727.7 493.8L747.7 512.9L745.3 447.7Z" fill="#1f2a37" stroke="#1f2a37"></path><path d="M878.3 268.5L863.7 246.5L837 256.4Z" fill="#4b5563" stroke="#4b5563"></path><path d="M728.3 540L747.7 512.9L727.7 493.8Z" fill="#343f4c" stroke="#343f4c"></path><path d="M837 256.4L855 173.3L805.3 144.2Z" fill="#111d29" stroke="#111d29"></path><path d="M886.7 92.1L826 0L773.7 56.2Z" fill="#434e5b" stroke="#434e5b"></path><path d="M760 540L728.3 540L570.7 544.9Z" fill="#1f2a37" stroke="#1f2a37"></path><path d="M698 540L728.3 540L727.7 493.8Z" fill="#1f2a37" stroke="#1f2a37"></path><path d="M64.7 236.5L69.3 246.4L105.7 233.5Z" fill="#1f2a37" stroke="#1f2a37"></path><path d="M0 459.9L114 460.8L111.3 404.8Z" fill="#111d29" stroke="#111d29"></path><path d="M64.7 236.5L105.7 233.5L98.7 198.4Z" fill="#182430" stroke="#182430"></path><path d="M818 440.8L766 326.6L761 439.9Z" fill="#434e5b" stroke="#434e5b"></path><path d="M837 256.4L863.7 246.5L855 173.3Z" fill="#26313e" stroke="#26313e"></path><path d="M801.3 -11.9L782.7 0L826 0Z" fill="#1f2a37" stroke="#1f2a37"></path><path d="M773.7 56.2L782.7 0L738 36.2Z" fill="#0a1722" stroke="#0a1722"></path><path d="M18.3 239.5L0 180.3L0 224.5Z" fill="#434e5b" stroke="#434e5b"></path><path d="M69.3 246.4L16.3 302.6L85.3 306.5Z" fill="#26313e" stroke="#26313e"></path><path d="M805.7 540L818 440.8L747.7 512.9Z" fill="#1f2a37" stroke="#1f2a37"></path><path d="M747.7 512.9L818 440.8L761 439.9Z" fill="#2d3845" stroke="#2d3845"></path><path d="M141 0L109.3 50.1L139 87.1Z" fill="#1f2a37" stroke="#1f2a37"></path><path d="M139 87.1L60.7 94.3L136 185.5Z" fill="#26313e" stroke="#26313e"></path><path d="M239.3 0L141 0L210.3 93.2Z" fill="#343f4c" stroke="#343f4c"></path><path d="M111.7 -1.9L141 0L239.3 0Z" fill="#0a1722" stroke="#0a1722"></path><path d="M861 384.7L864.7 335.5L766 326.6Z" fill="#182430" stroke="#182430"></path><path d="M864.7 335.5L878.3 268.5L837 256.4Z" fill="#00101c" stroke="#00101c"></path><path d="M863.7 246.5L880.3 232.4L855 173.3Z" fill="#182430" stroke="#182430"></path><path d="M29.3 354.7L111.3 404.8L85.3 306.5Z" fill="#434e5b" stroke="#434e5b"></path><path d="M111.3 404.8L114 460.8L158.7 459.8Z" fill="#0a1722" stroke="#0a1722"></path><path d="M158.7 459.8L125 528.9L219.3 528.9Z" fill="#1f2a37" stroke="#1f2a37"></path><path d="M878.3 268.5L880.3 232.4L863.7 246.5Z" fill="#111d29" stroke="#111d29"></path><path d="M826 0L782.7 0L773.7 56.2Z" fill="#182430" stroke="#182430"></path><path d="M805.7 540L760 540L570.7 544.9Z" fill="#1f2a37" stroke="#1f2a37"></path><path d="M728.3 540L760 540L747.7 512.9Z" fill="#111d29" stroke="#111d29"></path><path d="M857.3 396.6L766 326.6L818 440.8Z" fill="#26313e" stroke="#26313e"></path><path d="M857.3 396.6L861 384.7L766 326.6Z" fill="#111d29" stroke="#111d29"></path><path d="M864.7 335.5L911.3 261.5L878.3 268.5Z" fill="#00101c" stroke="#00101c"></path><path d="M872.3 404.7L857.3 396.6L867.3 440.8Z" fill="#26313e" stroke="#26313e"></path><path d="M773.7 56.2L805.3 144.2L886.7 92.1Z" fill="#111d29" stroke="#111d29"></path><path d="M782.7 0L801.3 -11.9L708.7 -1.9Z" fill="#4b5563" stroke="#4b5563"></path><path d="M708.7 -1.9L801.3 -11.9L625.7 0Z" fill="#182430" stroke="#182430"></path><path d="M801.3 -11.9L111.7 -1.9L275 0Z" fill="#182430" stroke="#182430"></path><path d="M141 0L111.7 -1.9L109.3 50.1Z" fill="#2d3845" stroke="#2d3845"></path><path d="M109.3 50.1L60.7 94.3L139 87.1Z" fill="#2d3845" stroke="#2d3845"></path><path d="M52.7 90.2L60.7 94.3L54.3 37.2Z" fill="#434e5b" stroke="#434e5b"></path><path d="M886.7 92.1L805.3 144.2L855 173.3Z" fill="#0a1722" stroke="#0a1722"></path><path d="M867.3 440.8L857.3 396.6L818 440.8Z" fill="#00101c" stroke="#00101c"></path><path d="M857.3 396.6L872.3 404.7L861 384.7Z" fill="#3c4654" stroke="#3c4654"></path><path d="M861 384.7L953.7 377.7L864.7 335.5Z" fill="#4b5563" stroke="#4b5563"></path><path d="M913.7 204.3L855 173.3L880.3 232.4Z" fill="#00101c" stroke="#00101c"></path><path d="M54.3 37.2L60.7 94.3L109.3 50.1Z" fill="#343f4c" stroke="#343f4c"></path><path d="M0 180.3L64.7 236.5L98.7 198.4Z" fill="#2d3845" stroke="#2d3845"></path><path d="M103 540L125 528.9L114 460.8Z" fill="#4b5563" stroke="#4b5563"></path><path d="M114 460.8L125 528.9L158.7 459.8Z" fill="#3c4654" stroke="#3c4654"></path><path d="M219.3 528.9L103 540L249.3 540Z" fill="#182430" stroke="#182430"></path><path d="M911.3 261.5L880.3 232.4L878.3 268.5Z" fill="#343f4c" stroke="#343f4c"></path><path d="M913.7 204.3L900.7 146.2L855 173.3Z" fill="#0a1722" stroke="#0a1722"></path><path d="M960 279.5L911.3 261.5L960 310.6Z" fill="#434e5b" stroke="#434e5b"></path><path d="M900.7 146.2L886.7 92.1L855 173.3Z" fill="#3c4654" stroke="#3c4654"></path><path d="M832.3 540L867.3 440.8L818 440.8Z" fill="#4b5563" stroke="#4b5563"></path><path d="M960 310.6L911.3 261.5L864.7 335.5Z" fill="#00101c" stroke="#00101c"></path><path d="M31.3 127.3L98.7 198.4L60.7 94.3Z" fill="#3c4654" stroke="#3c4654"></path><path d="M64.7 236.5L18.3 239.5L69.3 246.4Z" fill="#2d3845" stroke="#2d3845"></path><path d="M921.7 208.4L913.7 204.3L880.3 232.4Z" fill="#26313e" stroke="#26313e"></path><path d="M52.7 90.2L31.3 127.3L60.7 94.3Z" fill="#2d3845" stroke="#2d3845"></path><path d="M16.3 302.6L29.3 354.7L85.3 306.5Z" fill="#26313e" stroke="#26313e"></path><path d="M760 540L805.7 540L747.7 512.9Z" fill="#26313e" stroke="#26313e"></path><path d="M481 549.9L805.7 540L570.7 544.9Z" fill="#26313e" stroke="#26313e"></path><path d="M18.3 239.5L16.3 302.6L69.3 246.4Z" fill="#4b5563" stroke="#4b5563"></path><path d="M900.7 146.2L891.3 86.3L886.7 92.1Z" fill="#3c4654" stroke="#3c4654"></path><path d="M886.7 92.1L849.3 0L826 0Z" fill="#111d29" stroke="#111d29"></path><path d="M960 114.3L891.3 86.3L900.7 146.2Z" fill="#2d3845" stroke="#2d3845"></path><path d="M891.3 86.3L849.3 0L886.7 92.1Z" fill="#0a1722" stroke="#0a1722"></path><path d="M826 0L849.3 0L801.3 -11.9Z" fill="#343f4c" stroke="#343f4c"></path><path d="M911.3 261.5L921.7 208.4L880.3 232.4Z" fill="#0a1722" stroke="#0a1722"></path><path d="M913.7 204.3L960 153.2L900.7 146.2Z" fill="#3c4654" stroke="#3c4654"></path><path d="M111.7 -1.9L77.3 0L109.3 50.1Z" fill="#434e5b" stroke="#434e5b"></path><path d="M52.7 90.2L0 82.1L31.3 127.3Z" fill="#111d29" stroke="#111d29"></path><path d="M77.3 0L54.3 37.2L109.3 50.1Z" fill="#343f4c" stroke="#343f4c"></path><path d="M0 224.5L0 233.4L18.3 239.5Z" fill="#0a1722" stroke="#0a1722"></path><path d="M18.3 239.5L0 233.4L16.3 302.6Z" fill="#4b5563" stroke="#4b5563"></path><path d="M18.3 239.5L64.7 236.5L0 180.3Z" fill="#4b5563" stroke="#4b5563"></path><path d="M0 180.3L98.7 198.4L31.3 127.3Z" fill="#3c4654" stroke="#3c4654"></path><path d="M51.7 540L103 540L114 460.8Z" fill="#343f4c" stroke="#343f4c"></path><path d="M125 528.9L103 540L219.3 528.9Z" fill="#182430" stroke="#182430"></path><path d="M249.3 540L103 540L481 549.9Z" fill="#2d3845" stroke="#2d3845"></path><path d="M77.3 0L64.7 0L54.3 37.2Z" fill="#3c4654" stroke="#3c4654"></path><path d="M0 155.2L0 180.3L31.3 127.3Z" fill="#1f2a37" stroke="#1f2a37"></path><path d="M111.7 -1.9L64.7 0L77.3 0Z" fill="#3c4654" stroke="#3c4654"></path><path d="M0 155.2L31.3 127.3L0 82.1Z" fill="#182430" stroke="#182430"></path><path d="M481 549.9L832.3 540L805.7 540Z" fill="#182430" stroke="#182430"></path><path d="M805.7 540L832.3 540L818 440.8Z" fill="#00101c" stroke="#00101c"></path><path d="M0 82.1L52.7 90.2L54.3 37.2Z" fill="#111d29" stroke="#111d29"></path><path d="M16.3 302.6L0 338.5L29.3 354.7Z" fill="#3c4654" stroke="#3c4654"></path><path d="M29.3 354.7L0 396.8L111.3 404.8Z" fill="#2d3845" stroke="#2d3845"></path><path d="M0 233.4L0 338.5L16.3 302.6Z" fill="#2d3845" stroke="#2d3845"></path><path d="M893.7 468.9L898.3 453.9L867.3 440.8Z" fill="#00101c" stroke="#00101c"></path><path d="M867.3 440.8L898.3 453.9L872.3 404.7Z" fill="#1f2a37" stroke="#1f2a37"></path><path d="M911.3 261.5L960 279.5L921.7 208.4Z" fill="#26313e" stroke="#26313e"></path><path d="M0 338.5L0 363.6L29.3 354.7Z" fill="#182430" stroke="#182430"></path><path d="M0 363.6L0 366.7L29.3 354.7Z" fill="#2d3845" stroke="#2d3845"></path><path d="M832.3 540L893.7 468.9L867.3 440.8Z" fill="#00101c" stroke="#00101c"></path><path d="M0 366.7L0 396.8L29.3 354.7Z" fill="#111d29" stroke="#111d29"></path><path d="M0 0L0 82.1L54.3 37.2Z" fill="#111d29" stroke="#111d29"></path><path d="M861 384.7L872.3 404.7L953.7 377.7Z" fill="#343f4c" stroke="#343f4c"></path><path d="M960 310.6L864.7 335.5L953.7 377.7Z" fill="#4b5563" stroke="#4b5563"></path><path d="M921.7 208.4L960 196.5L913.7 204.3Z" fill="#4b5563" stroke="#4b5563"></path><path d="M960 279.5L960 196.5L921.7 208.4Z" fill="#4b5563" stroke="#4b5563"></path><path d="M891.3 86.3L945.7 0L849.3 0Z" fill="#111d29" stroke="#111d29"></path><path d="M832.3 540L864.7 540L893.7 468.9Z" fill="#182430" stroke="#182430"></path><path d="M481 549.9L864.7 540L832.3 540Z" fill="#111d29" stroke="#111d29"></path><path d="M953.7 377.7L872.3 404.7L960 389.8Z" fill="#111d29" stroke="#111d29"></path><path d="M953.7 377.7L960 389.8L960 383.7Z" fill="#26313e" stroke="#26313e"></path><path d="M960 310.6L963.7 290.6L960 279.5Z" fill="#26313e" stroke="#26313e"></path><path d="M960 279.5L963.7 290.6L960 196.5Z" fill="#00101c" stroke="#00101c"></path><path d="M963.7 290.6L960 153.2L960 196.5Z" fill="#1f2a37" stroke="#1f2a37"></path><path d="M960 196.5L960 153.2L913.7 204.3Z" fill="#26313e" stroke="#26313e"></path><path d="M963.7 290.6L960 137.4L960 153.2Z" fill="#434e5b" stroke="#434e5b"></path><path d="M960 153.2L960 137.4L900.7 146.2Z" fill="#3c4654" stroke="#3c4654"></path><path d="M960 310.6L960 383.7L963.7 290.6Z" fill="#0a1722" stroke="#0a1722"></path><path d="M872.3 404.7L898.3 453.9L960 389.8Z" fill="#00101c" stroke="#00101c"></path><path d="M48.7 538.9L51.7 540L114 460.8Z" fill="#343f4c" stroke="#343f4c"></path><path d="M103 540L-5.7 542.9L481 549.9Z" fill="#26313e" stroke="#26313e"></path><path d="M963.7 290.6L960 114.3L960 137.4Z" fill="#26313e" stroke="#26313e"></path><path d="M960 137.4L960 114.3L900.7 146.2Z" fill="#343f4c" stroke="#343f4c"></path><path d="M0 459.9L48.7 538.9L114 460.8Z" fill="#343f4c" stroke="#343f4c"></path><path d="M953.7 377.7L960 383.7L960 310.6Z" fill="#00101c" stroke="#00101c"></path><path d="M960 389.8L898.3 453.9L948.7 452.8Z" fill="#182430" stroke="#182430"></path><path d="M0 396.8L0 459.9L111.3 404.8Z" fill="#343f4c" stroke="#343f4c"></path><path d="M948.7 452.8L898.3 453.9L893.7 468.9Z" fill="#343f4c" stroke="#343f4c"></path><path d="M960 383.7L960 389.8L963.7 290.6Z" fill="#343f4c" stroke="#343f4c"></path><path d="M111.7 -1.9L0 0L64.7 0Z" fill="#3c4654" stroke="#3c4654"></path><path d="M64.7 0L0 0L54.3 37.2Z" fill="#111d29" stroke="#111d29"></path><path d="M960 508.9L948.7 452.8L893.7 468.9Z" fill="#434e5b" stroke="#434e5b"></path><path d="M960 3.1L945.7 0L891.3 86.3Z" fill="#1f2a37" stroke="#1f2a37"></path><path d="M849.3 0L945.7 0L801.3 -11.9Z" fill="#4b5563" stroke="#4b5563"></path><path d="M960 114.3L960 3.1L891.3 86.3Z" fill="#2d3845" stroke="#2d3845"></path><path d="M963.7 290.6L960 3.1L960 114.3Z" fill="#182430" stroke="#182430"></path><path d="M963.7 290.6L960 0L960 3.1Z" fill="#1f2a37" stroke="#1f2a37"></path><path d="M960 3.1L960 0L945.7 0Z" fill="#2d3845" stroke="#2d3845"></path><path d="M945.7 0L960 0L801.3 -11.9Z" fill="#343f4c" stroke="#343f4c"></path><path d="M0 459.9L1.3 540L48.7 538.9Z" fill="#0a1722" stroke="#0a1722"></path><path d="M48.7 538.9L1.3 540L51.7 540Z" fill="#1f2a37" stroke="#1f2a37"></path><path d="M51.7 540L-5.7 542.9L103 540Z" fill="#343f4c" stroke="#343f4c"></path><path d="M0 459.9L0 540L1.3 540Z" fill="#111d29" stroke="#111d29"></path><path d="M1.3 540L-5.7 542.9L51.7 540Z" fill="#182430" stroke="#182430"></path><path d="M0 396.8L-5.7 542.9L0 459.9Z" fill="#1f2a37" stroke="#1f2a37"></path><path d="M0 459.9L-5.7 542.9L0 540Z" fill="#3c4654" stroke="#3c4654"></path><path d="M0 540L-5.7 542.9L1.3 540Z" fill="#4b5563" stroke="#4b5563"></path><path d="M0 366.7L-5.7 542.9L0 396.8Z" fill="#434e5b" stroke="#434e5b"></path><path d="M0 363.6L-5.7 542.9L0 366.7Z" fill="#182430" stroke="#182430"></path><path d="M0 338.5L-5.7 542.9L0 363.6Z" fill="#2d3845" stroke="#2d3845"></path><path d="M0 233.4L-5.7 542.9L0 338.5Z" fill="#26313e" stroke="#26313e"></path><path d="M0 224.5L-5.7 542.9L0 233.4Z" fill="#0a1722" stroke="#0a1722"></path><path d="M0 180.3L-5.7 542.9L0 224.5Z" fill="#1f2a37" stroke="#1f2a37"></path><path d="M0 155.2L-5.7 542.9L0 180.3Z" fill="#111d29" stroke="#111d29"></path><path d="M0 82.1L-5.7 542.9L0 155.2Z" fill="#1f2a37" stroke="#1f2a37"></path><path d="M0 0L-5.7 542.9L0 82.1Z" fill="#1f2a37" stroke="#1f2a37"></path><path d="M864.7 540L960 508.9L893.7 468.9Z" fill="#26313e" stroke="#26313e"></path><path d="M948.7 452.8L960 508.9L960 389.8Z" fill="#0a1722" stroke="#0a1722"></path><path d="M960 389.8L960 508.9L963.7 290.6Z" fill="#1f2a37" stroke="#1f2a37"></path><path d="M481 549.9L960 540L864.7 540Z" fill="#2d3845" stroke="#2d3845"></path><path d="M864.7 540L960 540L960 508.9Z" fill="#1f2a37" stroke="#1f2a37"></path><path d="M960 508.9L960 540L963.7 290.6Z" fill="#1f2a37" stroke="#1f2a37"></path></g></svg>